<svg width="20" height="20" viewBox="0 0 20 20" fill="none" xmlns="http://www.w3.org/2000/svg">
<path d="M16.668 3.33203H3.33397C2.41797 3.33203 1.67597 4.08203 1.67597 4.99903L1.66797 14.999C1.66797 15.916 2.41797 16.666 3.33397 16.666H16.668C17.584 16.666 18.334 15.916 18.334 14.999V4.99903C18.334 4.08203 17.584 3.33203 16.668 3.33203ZM16.334 6.87403L10.443 10.558C10.3101 10.6399 10.157 10.6832 10.001 10.6832C9.84489 10.6832 9.69187 10.6399 9.55897 10.558L3.66797 6.87403C3.58557 6.82654 3.51359 6.76293 3.45632 6.68701C3.39904 6.61108 3.35765 6.5244 3.33462 6.43213C3.31158 6.33985 3.30737 6.24389 3.32224 6.14995C3.3371 6.05602 3.37074 5.96604 3.42115 5.88539C3.47155 5.80475 3.53769 5.73508 3.61561 5.68055C3.69353 5.62603 3.78164 5.58776 3.87468 5.56803C3.96771 5.54831 4.06377 5.54752 4.15711 5.56574C4.25045 5.58395 4.33917 5.62078 4.41797 5.67403L10.001 9.16603L15.584 5.67403C15.6628 5.62078 15.7515 5.58395 15.8448 5.56574C15.9382 5.54752 16.0342 5.54831 16.1273 5.56803C16.2203 5.58776 16.3084 5.62603 16.3863 5.68055C16.4642 5.73508 16.5304 5.80475 16.5808 5.88539C16.6312 5.96604 16.6648 6.05602 16.6797 6.14995C16.6946 6.24389 16.6904 6.33985 16.6673 6.43213C16.6443 6.5244 16.6029 6.61108 16.5456 6.68701C16.4883 6.76293 16.4164 6.82654 16.334 6.87403Z" fill="url(#paint0_linear_104_142)"/>
<defs>
<linearGradient id="paint0_linear_104_142" x1="10.001" y1="3.33203" x2="10.001" y2="16.666" gradientUnits="userSpaceOnUse">
<stop stop-color="#FFBF00"/>
<stop offset="1" stop-color="#F2A50C"/>
</linearGradient>
</defs>
</svg>
