<svg width="20" height="20" viewBox="0 0 20 20" fill="none" xmlns="http://www.w3.org/2000/svg">
<path d="M10.001 1.66797C5.41797 1.66797 1.66797 5.41797 1.66797 10.001C1.66797 14.584 5.41797 18.334 10.001 18.334C14.584 18.334 18.334 14.584 18.334 10.001C18.334 5.41797 14.584 1.66797 10.001 1.66797ZM12.959 13.168L9.55897 11.076C9.43655 11.0029 9.33529 10.8991 9.26516 10.775C9.19502 10.6508 9.15842 10.5106 9.15897 10.368V6.45897C9.16335 6.29304 9.23183 6.13525 9.35004 6.01873C9.46825 5.9022 9.62699 5.83598 9.79297 5.83397C9.95832 5.83528 10.1165 5.90154 10.2335 6.01847C10.3504 6.1354 10.4167 6.29361 10.418 6.45897V10.167L13.618 12.092C13.918 12.276 14.018 12.667 13.834 12.968C13.7435 13.1094 13.6011 13.2097 13.4374 13.2471C13.2737 13.2845 13.1019 13.2561 12.959 13.168Z" fill="#FFBB00"/>
</svg>
