<svg width="20" height="20" viewBox="0 0 20 20" fill="none" xmlns="http://www.w3.org/2000/svg">
<path d="M9.99903 1.66797C6.49903 1.66797 3.33203 4.35097 3.33203 8.50097C3.33203 11.151 5.37403 14.268 9.44903 17.859C9.60302 17.9918 9.79964 18.065 10.003 18.065C10.2064 18.065 10.403 17.9918 10.557 17.859C14.624 14.268 16.666 11.151 16.666 8.50097C16.666 4.35097 13.499 1.66797 9.99903 1.66797ZM9.99903 10.001C9.08203 10.001 8.33203 9.25097 8.33203 8.33397C8.33203 7.41697 9.08203 6.66697 9.99903 6.66697C10.916 6.66697 11.666 7.41697 11.666 8.33397C11.666 9.25097 10.916 10.001 9.99903 10.001Z" fill="url(#paint0_linear_104_135)"/>
<defs>
<linearGradient id="paint0_linear_104_135" x1="9.99903" y1="1.66797" x2="9.99903" y2="18.065" gradientUnits="userSpaceOnUse">
<stop stop-color="#FFBF00"/>
<stop offset="1" stop-color="#F2A50C"/>
</linearGradient>
</defs>
</svg>
