<svg width="20" height="20" viewBox="0 0 20 20" fill="none" xmlns="http://www.w3.org/2000/svg">
<g clip-path="url(#clip0_104_145)">
<path d="M14.0245 9.71681L11.9075 9.47481C11.6587 9.44566 11.4066 9.47326 11.17 9.55552C10.9334 9.63779 10.7185 9.7726 10.5415 9.94981L9.00751 11.4828C6.64221 10.2797 4.71963 8.35712 3.51651 5.99181L5.05751 4.44981C5.41651 4.09181 5.59151 3.59181 5.53251 3.08281L5.29151 0.982814C5.24415 0.576223 5.04893 0.201244 4.74301 -0.0707419C4.4371 -0.342727 4.04185 -0.492727 3.63251 -0.492186H2.19151C1.24951 -0.492186 0.466513 0.291814 0.524513 1.23281C0.966513 8.34981 6.65751 14.0328 13.7665 14.4748C14.7075 14.5328 15.4915 13.7498 15.4915 12.8078V11.3668C15.4936 10.9593 15.3449 10.5653 15.0741 10.2608C14.8033 9.95618 14.4295 9.76245 14.0245 9.71681Z" fill="url(#paint0_linear_104_145)"/>
</g>
<defs>
<linearGradient id="paint0_linear_104_145" x1="8.00651" y1="-0.492188" x2="8.00651" y2="14.4778" gradientUnits="userSpaceOnUse">
<stop stop-color="#FFBF00"/>
<stop offset="1" stop-color="#F2A50C"/>
</linearGradient>
<clipPath id="clip0_104_145">
<rect width="20" height="20" fill="white"/>
</clipPath>
</defs>
</svg>
