<svg width="28" height="32" viewBox="0 0 28 32" fill="none" xmlns="http://www.w3.org/2000/svg">
<g clip-path="url(#clip0_62_222)">
<path d="M27.8466 16.0977C27.8466 7.26166 21.6124 0.0976562 13.9233 0.0976562C6.23415 0.0976562 0 7.26166 0 16.0977C0 24.0843 5.09129 30.703 11.7478 31.903V20.723H8.21242V16.0963H11.7478V12.5737C11.7478 8.56432 13.827 6.34832 17.0073 6.34832C18.5295 6.34832 20.1238 6.66166 20.1238 6.66166V10.599H18.3672C16.6372 10.599 16.0977 11.8323 16.0977 13.0977V16.0977H19.959L19.3418 20.7243H16.0977V31.9043C22.7553 30.703 27.8466 24.083 27.8466 16.0977Z" fill="white"/>
</g>
<defs>
<clipPath id="clip0_62_222">
<rect width="27.8466" height="32" fill="white"/>
</clipPath>
</defs>
</svg>
