<svg width="28" height="32" viewBox="0 0 28 32" fill="none" xmlns="http://www.w3.org/2000/svg">
<path d="M13.9233 0C10.1408 0 9.66859 0.02 8.18341 0.096C6.70058 0.176 5.69114 0.444 4.80353 0.84C3.88808 1.248 3.1107 1.796 2.33679 2.68533C1.56289 3.57467 1.08486 4.46667 0.730973 5.52C0.386371 6.54 0.151996 7.7 0.0835397 9.404C0.0139233 11.1107 0 11.6533 0 16C0 20.3467 0.0174041 20.8893 0.0835397 22.596C0.153156 24.2987 0.386371 25.46 0.730973 26.48C1.08602 27.5307 1.56289 28.4253 2.33679 29.3147C3.1107 30.2027 3.88692 30.7533 4.80353 31.16C5.6923 31.5547 6.70174 31.8253 8.18341 31.904C9.66859 31.984 10.1408 32 13.9233 32C17.7058 32 18.178 31.98 19.6632 31.904C21.1449 31.824 22.1554 31.5547 23.043 31.16C23.9574 30.752 24.7359 30.2027 25.5098 29.3147C26.2826 28.4253 26.7617 27.5347 27.1156 26.48C27.4591 25.46 27.6946 24.2987 27.763 22.596C27.8327 20.8893 27.8466 20.3467 27.8466 16C27.8466 11.6533 27.8292 11.1107 27.763 9.404C27.6934 7.70133 27.4591 6.53867 27.1156 5.52C26.7606 4.468 26.2826 3.57467 25.5098 2.68533C24.7359 1.796 23.9608 1.24667 23.043 0.84C22.1554 0.444 21.1449 0.174667 19.6632 0.096C18.178 0.016 17.7058 0 13.9233 0ZM13.9233 2.88C17.6397 2.88 18.0829 2.90133 19.5506 2.97467C20.9082 3.048 21.6449 3.30667 22.1346 3.528C22.7866 3.81733 23.2484 4.164 23.7381 4.72267C24.2242 5.28267 24.5259 5.81467 24.7776 6.564C24.9679 7.12667 25.1953 7.97333 25.2568 9.53333C25.323 11.2213 25.338 11.728 25.338 16C25.338 20.272 25.3206 20.78 25.2522 22.4667C25.1814 24.0267 24.9551 24.8733 24.7637 25.436C24.5039 26.1853 24.208 26.716 23.7207 27.2787C23.2345 27.8373 22.7646 28.184 22.1195 28.4733C21.6322 28.692 20.8838 28.9533 19.5263 29.024C18.0481 29.1 17.613 29.1173 13.8885 29.1173C10.1629 29.1173 9.72777 29.0973 8.25071 29.0187C6.89203 28.9373 6.14365 28.6773 5.65634 28.4573C4.99614 28.1587 4.54247 27.8187 4.05632 27.2587C3.56784 26.7 3.25573 26.16 3.01207 25.4187C2.82062 24.8587 2.59554 23.9987 2.52475 22.4387C2.47254 20.7587 2.45398 20.24 2.45398 15.98C2.45398 11.7187 2.47254 11.1987 2.52475 9.49867C2.59554 7.93867 2.82062 7.08 3.01207 6.52C3.25573 5.76 3.56784 5.24 4.05632 4.67867C4.54247 4.12 4.99614 3.76 5.65634 3.48133C6.14365 3.26 6.87578 3 8.2333 2.92C9.71263 2.86 10.1477 2.84 13.8711 2.84L13.9233 2.88ZM13.9233 7.784C9.97256 7.784 6.77368 11.464 6.77368 16C6.77368 20.54 9.97604 24.216 13.9233 24.216C17.874 24.216 21.0729 20.536 21.0729 16C21.0729 11.46 17.8705 7.784 13.9233 7.784ZM13.9233 21.3333C11.3591 21.3333 9.28222 18.9467 9.28222 16C9.28222 13.0533 11.3591 10.6667 13.9233 10.6667C16.4875 10.6667 18.5644 13.0533 18.5644 16C18.5644 18.9467 16.4875 21.3333 13.9233 21.3333ZM23.0268 7.46C23.0268 8.52 22.2773 9.38 21.356 9.38C20.4336 9.38 19.6852 8.51867 19.6852 7.46C19.6852 6.40133 20.4348 5.54133 21.356 5.54133C22.2761 5.54 23.0268 6.40133 23.0268 7.46Z" fill="white"/>
</svg>
