<svg width="28" height="24" viewBox="0 0 28 24" fill="none" xmlns="http://www.w3.org/2000/svg">
<path d="M27.2642 4.2479C27.1068 3.56693 26.7966 2.94541 26.3644 2.44558C25.9324 1.94575 25.3936 1.58515 24.802 1.3999C22.6312 0.726562 13.9233 0.726563 13.9233 0.726563C13.9233 0.726563 5.21543 0.726562 3.0434 1.3999C2.45213 1.58548 1.91363 1.94621 1.48176 2.446C1.04989 2.9458 0.739781 3.56715 0.582457 4.2479C0 6.7599 0 11.9999 0 11.9999C0 11.9999 0 17.2399 0.582457 19.7519C0.739775 20.4329 1.05002 21.0544 1.48213 21.5542C1.91423 22.054 2.45302 22.4146 3.04456 22.5999C5.21543 23.2732 13.9233 23.2732 13.9233 23.2732C13.9233 23.2732 22.6312 23.2732 24.8032 22.5999C25.3948 22.4148 25.9336 22.0542 26.3657 21.5544C26.7979 21.0545 27.108 20.4329 27.2653 19.7519C27.8466 17.2399 27.8466 11.9999 27.8466 11.9999C27.8466 11.9999 27.8466 6.7599 27.2642 4.2479ZM11.0748 16.7572V7.2426L18.3532 11.9999L11.0748 16.7572Z" fill="white"/>
</svg>
