<svg width="134" height="38" viewBox="0 0 134 38" fill="none" xmlns="http://www.w3.org/2000/svg">
<path d="M5.91415 14.975C6.55853 13.7074 7.44156 12.6775 8.56325 11.8852C9.70881 11.0929 11.0095 10.6968 12.4653 10.6968C14.1598 10.6968 15.6872 11.2514 17.0475 12.3606C18.4317 13.4697 19.5176 15.0543 20.3052 17.1141C21.1166 19.1423 21.5224 21.5033 21.5224 24.197C21.5224 26.8907 21.1166 29.2833 20.3052 31.3749C19.5176 33.4347 18.4317 35.0351 17.0475 36.176C15.6872 37.3168 14.1598 37.8873 12.4653 37.8873C10.9856 37.8873 9.68494 37.507 8.56325 36.7464C7.46543 35.9541 6.58239 34.94 5.91415 33.7041V37.4594H0.902344V2.28298H5.91415V14.975ZM16.4032 24.197C16.4032 22.6124 16.1526 21.2497 15.6514 20.1089C15.1741 18.9363 14.5297 18.049 13.7183 17.4469C12.9351 16.8462 12.0452 16.5345 11.1408 16.5437C10.2339 16.5437 9.37469 16.8606 8.56325 17.4944C7.77568 18.0965 7.13131 18.9839 6.63013 20.1564C6.15281 21.329 5.91415 22.7075 5.91415 24.292C5.91415 25.8766 6.15281 27.2551 6.63013 28.4276C7.13131 29.6002 7.77568 30.5034 8.56325 31.1372C9.37469 31.7393 10.2339 32.0404 11.1408 32.0404C12.0715 32.0404 12.9307 31.7235 13.7183 31.0896C14.5297 30.4558 15.1741 29.5527 15.6514 28.3801C16.1526 27.2076 16.4032 25.8132 16.4032 24.197ZM27.7056 7.98727C26.8225 7.98727 26.0827 7.62283 25.4861 6.89395C24.9133 6.13338 24.6269 5.19851 24.6269 4.08934C24.6269 2.98017 24.9133 2.06115 25.4861 1.33226C26.0827 0.571692 26.8225 0.191406 27.7056 0.191406C28.5886 0.191406 29.3165 0.571692 29.8893 1.33226C30.4859 2.06115 30.7843 2.98017 30.7843 4.08934C30.7843 5.19851 30.4859 6.13338 29.8893 6.89395C29.3165 7.62283 28.5886 7.98727 27.7056 7.98727ZM30.1757 11.1246V37.4594H25.1639V11.1246H30.1757ZM46.8698 37.4594L40.1396 26.241V37.4594H35.1278V2.28298H40.1396V22.2955L46.7982 11.1246H53.3135L44.5787 24.3396L53.3851 37.4594H46.8698ZM53.7501 24.292C53.7501 21.5667 54.1677 19.1899 55.003 17.1617C55.8383 15.1018 56.9958 13.5173 58.4755 12.4081C59.9552 11.2672 61.6496 10.6968 63.5589 10.6968C66.0171 10.6968 68.0457 11.5208 69.6447 13.1687C71.2675 14.7849 72.3534 17.0666 72.9024 20.0138H67.4978C67.2114 18.873 66.7221 17.9856 66.03 17.3518C65.3618 16.6863 64.5265 16.3536 63.5241 16.3536C62.0922 16.3536 60.9585 17.0508 60.1232 18.4451C59.2879 19.8078 58.8703 21.7568 58.8703 24.292C58.8703 26.7956 59.2879 28.7446 60.1232 30.1389C60.9585 31.5016 62.0922 32.183 63.5241 32.183C65.5527 32.183 66.8772 30.9787 67.4978 28.5703H72.9033C72.3544 31.4224 71.2685 33.6883 69.6457 35.3679C68.0228 37.0475 65.9942 37.8873 63.5599 37.8873C61.6506 37.8873 59.9562 37.3327 58.4765 36.2235C57.0086 35.0988 55.806 33.4526 55.004 31.4699C54.1687 29.4101 53.7501 27.0174 53.7501 24.292ZM80.5921 15.2127C81.2066 13.8573 82.0685 12.7292 83.098 11.9327C84.1481 11.1405 85.3414 10.7443 86.6779 10.7443V17.7321H85.3533C83.7782 17.7321 82.5849 18.2233 81.7735 19.2057C80.9859 20.1881 80.5921 21.8994 80.5921 24.3396V37.4594H75.5803V11.1246H80.5921V15.2127ZM102.045 33.7041C101.497 34.9084 100.602 35.9225 99.3605 36.7464C98.1195 37.5387 96.783 37.9348 95.3511 37.9348C94.1101 37.9348 92.9884 37.602 91.986 36.9365C90.9837 36.271 90.1961 35.352 89.6233 34.1795C89.0505 33.0069 88.7641 31.6601 88.7641 30.1389C88.7641 27.6988 89.4443 25.7023 90.8046 24.1494C92.1889 22.5966 94.2533 21.8202 96.9978 21.8202H102.045C101.998 20.1406 101.628 18.8096 100.936 17.8272C100.267 16.8131 99.3367 16.306 98.1434 16.306C97.0933 16.306 96.2222 16.6863 95.5301 17.4469C94.838 18.1758 94.3965 19.2057 94.2055 20.5367H89.1937C89.4324 18.6353 89.9455 16.9398 90.7331 15.4504C91.5374 13.9372 92.6226 12.7254 93.8833 11.9327C95.196 11.0771 96.6637 10.6493 98.2866 10.6493C99.9572 10.6493 101.461 11.1088 102.797 12.0278C104.125 12.9058 105.231 14.2764 105.983 15.9733C106.747 17.6846 107.129 19.6969 107.129 22.0103V37.4594H102.045V33.7041ZM96.8188 32.5633C97.6541 32.5633 98.4656 32.3256 99.2531 31.8502C100.065 31.3749 100.733 30.6618 101.258 29.7111C101.783 28.7604 102.045 27.6354 102.045 26.3361V26.1459H97.2842C96.1387 26.1459 95.2795 26.447 94.7067 27.0491C94.1578 27.6512 93.8833 28.4435 93.8833 29.4259C93.8833 30.3766 94.1339 31.1372 94.6351 31.7076C95.1602 32.278 95.8881 32.5633 96.8188 32.5633ZM117.698 16.5912V37.4594H112.615V16.5912H110.36V11.1246H112.615V9.79363C112.615 6.5612 113.307 4.18441 114.691 2.66327C116.076 1.14212 118.164 0.429085 120.956 0.524157V6.13338C119.739 6.10169 118.892 6.37106 118.414 6.94148C117.937 7.51191 117.698 8.54185 117.698 10.0313V11.1246H124.212V4.61223H129.259V11.1246H133.698V16.5912H129.259V29.3308C129.259 30.2182 129.414 30.8678 129.725 31.2798C130.059 31.6601 130.608 31.8502 131.371 31.8502H133.698V37.4594H130.548C126.324 37.4594 124.212 34.7341 124.212 29.2833V16.5912H117.698Z" fill="white"/>
</svg>
