<svg width="21" height="12" viewBox="0 0 21 12" fill="none" xmlns="http://www.w3.org/2000/svg">
<path d="M15.75 9.58993C14.3325 9.58993 13.44 9.89209 12.6525 10.1655C11.97 10.4029 11.4135 10.5971 10.5 10.5971C9.555 10.5971 9.03 10.4173 8.3475 10.1655C7.56 9.89209 6.699 9.58993 5.25 9.58993C3.801 9.58993 2.94 9.89209 2.1525 10.1655C1.701 10.3237 1.302 10.4604 0.819 10.5396C0.3465 10.6115 0 10.8705 0 11.1942V11.2662C0 11.6978 0.588 12.0072 1.197 11.9209C1.974 11.8129 2.562 11.6115 3.0975 11.4245C3.78 11.1871 4.326 10.9928 5.25 10.9928C6.174 10.9928 6.72 11.1727 7.4025 11.4245C8.19 11.6978 9.051 12 10.5 12C11.949 12 12.81 11.6978 13.5975 11.4245C14.28 11.1871 14.8365 10.9928 15.75 10.9928C16.695 10.9928 17.22 11.1727 17.9025 11.4245C18.4485 11.6115 19.0365 11.8201 19.824 11.9281C19.9659 11.947 20.1121 11.9444 20.2523 11.9204C20.3925 11.8964 20.5233 11.8516 20.6355 11.7892C20.7477 11.7267 20.8384 11.6482 20.9014 11.559C20.9644 11.4699 20.9981 11.3724 21 11.2734V11.2086C21 10.8777 20.643 10.6187 20.1705 10.5468C19.6875 10.4748 19.299 10.3381 18.8475 10.1727C18.06 9.89209 17.1675 9.58993 15.75 9.58993ZM15.75 6.38849C14.3325 6.38849 13.44 6.69784 12.6525 6.96403C11.97 7.19424 11.4135 7.39568 10.5 7.39568C9.555 7.39568 9.03 7.21583 8.3475 6.96403C7.56 6.69065 6.699 6.38849 5.25 6.38849C3.801 6.38849 2.94 6.69784 2.1525 6.96403C1.701 7.11511 1.302 7.25899 0.8085 7.33813C0.3465 7.41007 0 7.66906 0 7.99281V8.06475C6.00052e-05 8.16419 0.0324686 8.26236 0.0948682 8.35214C0.157268 8.44192 0.248089 8.52104 0.360726 8.58374C0.473363 8.64645 0.604983 8.69116 0.746012 8.71463C0.88704 8.7381 1.03393 8.73974 1.176 8.71942C1.9635 8.61151 2.5515 8.40288 3.0975 8.22302C3.78 7.97122 4.305 7.79137 5.25 7.79137C6.195 7.79137 6.72 7.97122 7.4025 8.22302C8.19 8.4964 9.051 8.79856 10.5 8.79856C11.949 8.79856 12.81 8.48921 13.5975 8.22302C14.28 7.97122 14.805 7.79137 15.75 7.79137C16.695 7.79137 17.22 7.97122 17.9025 8.22302C18.4485 8.41007 19.0365 8.6187 19.824 8.72662C19.9667 8.7457 20.1138 8.74293 20.2548 8.71853C20.3958 8.69412 20.5271 8.64867 20.6395 8.58544C20.7518 8.5222 20.8424 8.44273 20.9048 8.35272C20.9671 8.26271 20.9996 8.16437 21 8.06475V8C21 7.66906 20.643 7.41007 20.1705 7.33813C19.6875 7.26619 19.299 7.1295 18.8475 6.96403C18.06 6.69065 17.1675 6.38849 15.75 6.38849ZM18.8475 0.57554C18.06 0.302158 17.1885 0 15.75 0C14.3115 0 13.44 0.302158 12.6525 0.57554C11.97 0.805755 11.4135 1.00719 10.5 1.00719C9.555 1.00719 9.03 0.827338 8.3475 0.57554C7.56 0.309352 6.699 0 5.25 0C3.801 0 2.94 0.302158 2.1525 0.57554C1.701 0.733813 1.302 0.870503 0.819 0.94964C0.3465 1.02158 0 1.28058 0 1.60432V1.65468C0 2.08633 0.567 2.40288 1.176 2.31655C1.9635 2.20863 2.5515 2 3.0975 1.82014C3.78 1.58273 4.326 1.38849 5.25 1.38849C6.174 1.38849 6.72 1.56835 7.4025 1.82014C8.19 2.09353 9.051 2.39568 10.5 2.39568C11.949 2.39568 12.81 2.08633 13.5975 1.82014C14.28 1.58993 14.8365 1.38849 15.75 1.38849C16.695 1.38849 17.22 1.56835 17.9025 1.82014C18.4485 2.00719 19.0365 2.21583 19.824 2.32374C19.9667 2.34282 20.1138 2.34006 20.2548 2.31565C20.3958 2.29124 20.5271 2.2458 20.6395 2.18256C20.7518 2.11932 20.8424 2.03986 20.9048 1.94984C20.9671 1.85983 20.9996 1.7615 21 1.66187V1.59712C21 1.26619 20.643 1.00719 20.1705 0.935252C19.6875 0.863309 19.299 0.733813 18.8475 0.57554ZM15.75 3.18705C14.3325 3.18705 13.44 3.4964 12.6525 3.76259C11.97 4.01439 11.445 4.19424 10.5 4.19424C9.555 4.19424 9.03 4.01439 8.3475 3.76259C7.56 3.48921 6.699 3.18705 5.25 3.18705C3.801 3.18705 2.94 3.4964 2.1525 3.76259C1.701 3.92806 1.3125 4.06475 0.8295 4.13669C0.357 4.20863 0 4.46763 0 4.79856V4.86331C6.00052e-05 4.96275 0.0324686 5.06093 0.0948682 5.1507C0.157268 5.24048 0.248089 5.3196 0.360726 5.3823C0.473363 5.44501 0.604983 5.48972 0.746012 5.51319C0.88704 5.53666 1.03393 5.5383 1.176 5.51799C1.9635 5.41007 2.5515 5.20144 3.0975 5.02158C3.78 4.79137 4.3365 4.58993 5.25 4.58993C6.1635 4.58993 6.72 4.76978 7.4025 5.02158C8.19 5.29496 9.051 5.59712 10.5 5.59712C11.949 5.59712 12.81 5.28777 13.5975 5.02158C14.28 4.79137 14.8365 4.58993 15.75 4.58993C16.695 4.58993 17.22 4.76978 17.9025 5.02158C18.4485 5.20863 19.0365 5.41727 19.824 5.52518C19.9659 5.54415 20.1121 5.54155 20.2523 5.51755C20.3925 5.49355 20.5233 5.44875 20.6355 5.3863C20.7477 5.32386 20.8384 5.24529 20.9014 5.15617C20.9644 5.06704 20.9981 4.96952 21 4.8705V4.80576C21 4.47482 20.643 4.21583 20.1705 4.14388C19.6875 4.07194 19.299 3.93525 18.8475 3.76978C18.06 3.48921 17.1675 3.18705 15.75 3.18705Z" fill="url(#paint0_linear_73_436)"/>
<defs>
<linearGradient id="paint0_linear_73_436" x1="10.5" y1="0" x2="10.5" y2="12" gradientUnits="userSpaceOnUse">
<stop stop-color="#FFBF00"/>
<stop offset="1" stop-color="#F2A50C"/>
</linearGradient>
</defs>
</svg>
