<svg width="16" height="16" viewBox="0 0 16 16" fill="none" xmlns="http://www.w3.org/2000/svg">
<path d="M12.666 4.66894C12.666 3.93594 12.066 3.33594 11.333 3.33594H10C9.63303 3.33594 9.33303 3.63594 9.33303 4.00194C9.33303 4.36894 9.63303 4.66894 10 4.66894H11.333V6.43594L9.01303 9.33594H6.66603V6.66894C6.66603 6.30194 6.36603 6.00194 6.00003 6.00194H3.99903C3.64876 6.00181 3.30189 6.0707 2.97826 6.20468C2.65462 6.33867 2.36056 6.53511 2.11288 6.78279C1.8652 7.03047 1.66876 7.32453 1.53478 7.64817C1.40079 7.9718 1.3319 8.31867 1.33203 8.66894V10.0019C1.33203 10.3689 1.63203 10.6689 1.99903 10.6689H2.66503C2.66503 11.7759 3.55903 12.6689 4.66503 12.6689C5.77203 12.6689 6.66503 11.7759 6.66503 10.6689H9.01203C9.41903 10.6689 9.79903 10.4819 10.052 10.1689L12.372 7.26894C12.565 7.02894 12.665 6.73494 12.665 6.43594L12.666 4.66894ZM4.66603 11.3359C4.48947 11.3351 4.32038 11.2646 4.19562 11.1396C4.07086 11.0147 4.00056 10.8455 4.00003 10.6689H5.33303C5.33303 11.0359 5.03303 11.3359 4.66603 11.3359Z" fill="#9A9999"/>
<path d="M3.99903 4H5.99903C6.36603 4 6.66603 4.3 6.66603 4.667C6.66603 5.033 6.36603 5.333 6.00003 5.333H3.99903C3.82247 5.33247 3.65327 5.26217 3.52833 5.13741C3.40338 5.01266 3.33282 4.84356 3.33203 4.667C3.33203 4.3 3.63203 4 3.99903 4ZM12.667 8.666C11.56 8.666 10.667 9.56 10.667 10.666C10.667 11.773 11.56 12.666 12.667 12.666C13.774 12.666 14.667 11.773 14.667 10.666C14.667 9.56 13.774 8.666 12.667 8.666ZM12.667 11.333C12.4903 11.3325 12.3209 11.262 12.196 11.1371C12.071 11.0121 12.0006 10.8427 12 10.666C12 10.3 12.3 10 12.667 10C13.034 10 13.334 10.3 13.334 10.666C13.334 11.033 13.034 11.333 12.667 11.333Z" fill="#9A9999"/>
</svg>
