<svg width="15" height="16" viewBox="0 0 15 16" fill="none" xmlns="http://www.w3.org/2000/svg">
<path d="M0.667 4.00097C1.033 4.00097 1.333 3.70097 1.333 3.33497V2.66797C1.334 2.30097 1.634 2.00097 2 2.00097H2.667C3.033 2.00097 3.333 1.70097 3.333 1.33497C3.333 0.967969 3.033 0.667969 2.667 0.667969H2C0.893 0.667969 0 1.56097 0 2.66797V3.33497C0 3.70097 0.3 4.00097 0.667 4.00097ZM2.667 14.001H2C1.82344 14.0004 1.65424 13.9301 1.52929 13.8054C1.40435 13.6806 1.33379 13.5115 1.333 13.335V12.668C1.333 12.301 1.033 12.002 0.667 12.002C0.3 12.002 0 12.302 0 12.668V13.335C0 14.442 0.893 15.335 2 15.335H2.667C3.033 15.335 3.333 15.035 3.333 14.668C3.333 14.301 3.033 14.002 2.667 14.002V14.001ZM12.667 0.667969H12.001C11.634 0.667969 11.334 0.967969 11.334 1.33497C11.334 1.70097 11.634 2.00097 12.001 2.00097H12.667C13.034 2.00097 13.334 2.30097 13.334 2.66797V3.33497C13.334 3.70097 13.634 4.00097 14.001 4.00097C14.367 4.00097 14.667 3.70097 14.667 3.33497V2.66797C14.667 1.56097 13.774 0.667969 12.667 0.667969ZM14.001 12.001C13.634 12.001 13.334 12.301 13.334 12.668V13.335C13.334 13.702 13.034 14.002 12.667 14.002H12.001C11.634 14.002 11.334 14.302 11.334 14.668C11.334 15.035 11.634 15.335 12.001 15.335H12.667C13.774 15.335 14.667 14.442 14.667 13.335V12.668C14.667 12.301 14.367 12.002 14.001 12.002V12.001ZM11.999 9.91497V6.08797C11.999 5.60797 11.746 5.16797 11.333 4.93497L7.999 3.01497C7.7969 2.89638 7.56682 2.83387 7.3325 2.83387C7.09818 2.83387 6.8681 2.89638 6.666 3.01497L3.333 4.92697C2.919 5.16697 2.666 5.60697 2.666 6.08697V9.91397C2.666 10.394 2.919 10.834 3.333 11.067L6.666 12.987C6.8681 13.1056 7.09818 13.1681 7.3325 13.1681C7.56682 13.1681 7.7969 13.1056 7.999 12.987L11.334 11.068C11.5372 10.9521 11.706 10.7842 11.823 10.5816C11.9401 10.379 12.0011 10.1489 12 9.91497H11.999ZM6.666 11.448L3.999 9.91497V6.82797L6.666 8.38097V11.448ZM7.333 7.22797L4.693 5.68797L7.333 4.16797L9.973 5.68797L7.333 7.22797ZM10.666 9.91497L7.999 11.448V8.38097L10.666 6.82797V9.91497Z" fill="#9A9999"/>
</svg>
