<svg width="32" height="32" viewBox="0 0 32 32" fill="none" xmlns="http://www.w3.org/2000/svg">
<g clip-path="url(#clip0_150_582)">
<circle cx="16" cy="16" r="16" fill="white"/>
<path d="M23.5833 12.582H22.695L20.8533 7.51203C20.7009 7.09398 20.4239 6.73274 20.0597 6.47703C19.6955 6.22133 19.2617 6.08346 18.8167 6.08203H17.0833C16.4875 6.08203 16 6.56953 16 7.16536C16 7.7612 16.4875 8.2487 17.0833 8.2487H18.8167L20.3983 12.582H15.1875L14.7975 11.4987H14.895C15.4908 11.4987 15.9783 11.0112 15.9783 10.4154C15.9783 9.81953 15.4908 9.33203 14.895 9.33203H11.6667C11.0708 9.33203 10.5833 9.81953 10.5833 10.4154C10.5833 11.0112 11.0708 11.4987 11.6667 11.4987H12.4792L14.4508 16.9154H13.725C13.2483 14.4995 11.2225 12.712 8.6875 12.5929C5.65417 12.4412 3 14.9654 3 17.9987C3 21.032 5.38333 23.4154 8.41667 23.4154C11.0817 23.4154 13.2375 21.5845 13.725 19.082H18.275C18.7517 21.4979 20.7775 23.2854 23.3125 23.4045C26.3458 23.5454 29 21.032 29 17.9879C29 14.9654 26.6167 12.582 23.5833 12.582ZM9.5 19.082H11.4717C11.0167 20.4145 9.73833 21.3354 8.2 21.2379C6.58583 21.1404 5.2425 19.7754 5.16667 18.1504C5.09083 16.2545 6.5425 14.7487 8.41667 14.7487C9.8575 14.7487 11.0383 15.6479 11.4717 16.9154H9.5C8.90417 16.9154 8.41667 17.4029 8.41667 17.9987C8.41667 18.5945 8.90417 19.082 9.5 19.082ZM18.275 16.9154H16.7583L15.9675 14.7487H19.25C18.7733 15.377 18.4267 16.1029 18.275 16.9154ZM23.4533 21.2487C21.785 21.1837 20.3767 19.7645 20.3333 18.0854C20.3117 17.0454 20.7558 16.1354 21.4708 15.5287L22.1425 17.3704C22.3483 17.9337 22.9658 18.2262 23.5292 18.0204C24.0925 17.8145 24.385 17.197 24.1792 16.6337L23.4967 14.7595L23.5075 14.7487C23.9418 14.7339 24.3747 14.8073 24.7799 14.9644C25.1851 15.1215 25.5543 15.3591 25.8651 15.6628C26.1759 15.9666 26.422 16.3301 26.5884 16.7316C26.7548 17.1331 26.8381 17.5641 26.8333 17.9987C26.8333 19.862 25.3383 21.3137 23.4533 21.2487Z" fill="url(#paint0_linear_150_582)"/>
</g>
<defs>
<linearGradient id="paint0_linear_150_582" x1="16" y1="6.08203" x2="16" y2="23.4154" gradientUnits="userSpaceOnUse">
<stop stop-color="#FFB60D"/>
<stop offset="1" stop-color="#E59317"/>
</linearGradient>
<clipPath id="clip0_150_582">
<rect width="32" height="32" fill="white"/>
</clipPath>
</defs>
</svg>
