<svg width="22" height="31" viewBox="0 0 22 31" fill="none" xmlns="http://www.w3.org/2000/svg">
<path d="M19.0007 10.3165H17.6673V7.48723C17.6673 3.58284 14.6806 0.414062 11.0007 0.414062C7.32065 0.414062 4.33398 3.58284 4.33398 7.48723V10.3165H3.00065C1.53398 10.3165 0.333984 11.5897 0.333984 13.1458V27.2921C0.333984 28.8482 1.53398 30.1214 3.00065 30.1214H19.0007C20.4673 30.1214 21.6673 28.8482 21.6673 27.2921V13.1458C21.6673 11.5897 20.4673 10.3165 19.0007 10.3165ZM11.0007 23.0482C9.53398 23.0482 8.33398 21.775 8.33398 20.2189C8.33398 18.6628 9.53398 17.3897 11.0007 17.3897C12.4673 17.3897 13.6673 18.6628 13.6673 20.2189C13.6673 21.775 12.4673 23.0482 11.0007 23.0482ZM7.00065 10.3165V7.48723C7.00065 5.13894 8.78732 3.24333 11.0007 3.24333C13.214 3.24333 15.0007 5.13894 15.0007 7.48723V10.3165H7.00065Z" fill="url(#paint0_linear_97_398)"/>
<defs>
<linearGradient id="paint0_linear_97_398" x1="11.0007" y1="0.414062" x2="11.0007" y2="30.1214" gradientUnits="userSpaceOnUse">
<stop stop-color="#FFBF00"/>
<stop offset="1" stop-color="#F2A50C"/>
</linearGradient>
</defs>
</svg>
