<svg width="22" height="23" viewBox="0 0 22 23" fill="none" xmlns="http://www.w3.org/2000/svg">
<path d="M3.0675 6.2515C1.32187 8.08156 0.339001 10.562 0.334004 13.1498C0.329006 15.7377 1.30229 18.2222 3.04083 20.0597C5.00083 15.3079 8.49416 11.3387 12.8542 8.9768C9.09092 12.3145 6.55059 16.9187 5.6675 22.0023C9.13416 23.7214 13.4008 23.0925 16.2675 20.0876C20.2542 15.9089 21.3742 4.51849 21.6142 1.38789C21.6225 1.28841 21.61 1.18823 21.5774 1.09438C21.5449 1.00054 21.4931 0.915312 21.4257 0.844701C21.3583 0.77409 21.277 0.719811 21.1875 0.685683C21.098 0.651555 21.0024 0.638407 20.9075 0.647164C17.9208 0.898731 7.05416 2.07271 3.0675 6.2515Z" fill="url(#paint0_linear_97_390)"/>
<defs>
<linearGradient id="paint0_linear_97_390" x1="10.9753" y1="0.644531" x2="10.9753" y2="22.9449" gradientUnits="userSpaceOnUse">
<stop stop-color="#FFBF00"/>
<stop offset="1" stop-color="#F2A50C"/>
</linearGradient>
</defs>
</svg>
