<svg width="20" height="15" viewBox="0 0 20 15" fill="none" xmlns="http://www.w3.org/2000/svg">
<path d="M17.4614 5.63287C17.3628 5.76929 17.3043 5.92766 17.2921 6.09198C17.2798 6.25629 17.314 6.42073 17.3914 6.56868C17.6394 7.11051 17.8144 7.67948 17.9114 8.26248C18.1688 9.76926 17.9281 11.3137 17.2214 12.6888C17.1356 12.8397 17.0073 12.9656 16.8504 13.0531C16.6935 13.1405 16.514 13.1861 16.3314 13.1848H3.68102C3.49739 13.1852 3.3172 13.1382 3.1602 13.0491C3.0032 12.9599 2.87547 12.8321 2.791 12.6795C2.15086 11.4643 1.87511 10.1093 1.99316 8.75899C2.1112 7.40868 2.61861 6.11365 3.4613 5.01197C4.30398 3.91028 5.45035 3.04323 6.77819 2.50326C8.10603 1.96328 9.56558 1.77062 11.0012 1.94581C11.7276 2.0257 12.4381 2.20217 13.1113 2.46986C13.2694 2.54226 13.4451 2.57434 13.6207 2.56283C13.7963 2.55133 13.9655 2.49666 14.1113 2.40435C14.2632 2.31072 14.3849 2.1801 14.4634 2.02654C14.5418 1.87299 14.574 1.70233 14.5566 1.53292C14.5391 1.36351 14.4725 1.20177 14.3641 1.06511C14.2557 0.928444 14.1095 0.822037 13.9413 0.757337C12.0095 -0.0178291 9.86569 -0.203651 7.81455 0.226267C5.7634 0.656185 3.90917 1.67998 2.51524 3.15223C1.12132 4.62448 0.258576 6.47031 0.0495693 8.42754C-0.159437 10.3848 0.295919 12.3539 1.35096 14.0551C1.52547 14.338 1.77606 14.5732 2.07781 14.7374C2.37956 14.9015 2.72197 14.9889 3.07101 14.9909H16.9214C17.2738 14.9922 17.6204 14.9064 17.9259 14.742C18.2315 14.5777 18.4852 14.3407 18.6614 14.0551C19.4338 12.8025 19.8855 11.3994 19.9809 9.95593C20.0763 8.51248 19.813 7.06798 19.2115 5.73581C19.1353 5.58399 19.0169 5.45411 18.8687 5.35978C18.7205 5.26545 18.5479 5.21013 18.369 5.19961C18.1901 5.18909 18.0115 5.22375 17.8518 5.29997C17.6921 5.37619 17.5573 5.49117 17.4614 5.63287Z" fill="url(#paint0_linear_73_446)"/>
<path d="M8.59003 11.8045C8.21474 12.1557 8.00391 12.632 8.00391 13.1286C8.00391 13.3745 8.05567 13.6181 8.15624 13.8453C8.2568 14.0725 8.40421 14.2789 8.59003 14.4528C8.77586 14.6267 8.99647 14.7646 9.23926 14.8587C9.48205 14.9528 9.74228 15.0013 10.0051 15.0013C10.5358 15.0013 11.0448 14.804 11.4201 14.4528L17.0803 6.50781L8.59003 11.8045Z" fill="url(#paint1_linear_73_446)"/>
<defs>
<linearGradient id="paint0_linear_73_446" x1="10" y1="0" x2="10" y2="14.9909" gradientUnits="userSpaceOnUse">
<stop stop-color="#FFBF00"/>
<stop offset="1" stop-color="#F2A50C"/>
</linearGradient>
<linearGradient id="paint1_linear_73_446" x1="12.5421" y1="6.50781" x2="12.5421" y2="15.0013" gradientUnits="userSpaceOnUse">
<stop stop-color="#FFBF00"/>
<stop offset="1" stop-color="#F2A50C"/>
</linearGradient>
</defs>
</svg>
