<svg width="54" height="59" viewBox="0 0 54 59" fill="none" xmlns="http://www.w3.org/2000/svg">
<path d="M2.77431 12.165C3.86723 12.325 4.62347 13.3407 4.46344 14.4336C4.3034 15.5265 3.28768 16.2828 2.19477 16.1228C1.10186 15.9627 0.345608 14.947 0.505644 13.8541C0.66568 12.7612 1.6814 12.0049 2.77431 12.165Z" fill="#E6A40B"/>
<path d="M4.51294 0.291577C5.60585 0.451613 6.3621 1.46733 6.20206 2.56025C6.04203 3.65316 5.02631 4.40941 3.93339 4.24937C2.84048 4.08934 2.08423 3.07362 2.24427 1.9807C2.4043 0.88779 3.42002 0.131542 4.51294 0.291577Z" fill="#E6A40B"/>
<path d="M23.0438 39.389C24.1367 39.549 24.893 40.5647 24.733 41.6576C24.5729 42.7506 23.5572 43.5068 22.4643 43.3468C21.3714 43.1867 20.6151 42.171 20.7752 41.0781C20.9352 39.9852 21.9509 39.2289 23.0438 39.389Z" fill="#E6A40B"/>
<path d="M24.7824 27.5156C25.8754 27.6756 26.6316 28.6913 26.4716 29.7843C26.3115 30.8772 25.2958 31.6334 24.2029 31.4734C23.11 31.3133 22.3537 30.2976 22.5138 29.2047C22.6738 28.1118 23.6895 27.3556 24.7824 27.5156Z" fill="#E6A40B"/>
<path d="M26.5211 15.6422C27.614 15.8022 28.3702 16.818 28.2102 17.9109C28.0502 19.0038 27.0344 19.76 25.9415 19.6C24.8486 19.44 24.0924 18.4242 24.2524 17.3313C24.4124 16.2384 25.4282 15.4822 26.5211 15.6422Z" fill="#E6A40B"/>
<path d="M28.2597 3.76883C29.3526 3.92886 30.1089 4.94458 29.9488 6.03749C29.7888 7.13041 28.7731 7.88666 27.6802 7.72662C26.5872 7.56658 25.831 6.55087 25.991 5.45795C26.1511 4.36504 27.1668 3.60879 28.2597 3.76883Z" fill="#E6A40B"/>
<path d="M11.1704 37.6503C12.2634 37.8104 13.0196 38.8261 12.8596 39.919C12.6995 41.0119 11.6838 41.7682 10.5909 41.6081C9.49799 41.4481 8.74174 40.4324 8.90178 39.3395C9.06181 38.2466 10.0775 37.4903 11.1704 37.6503Z" fill="#E6A40B"/>
<path d="M12.9091 25.777C14.002 25.937 14.7582 26.9527 14.5982 28.0456C14.4382 29.1385 13.4224 29.8948 12.3295 29.7348C11.2366 29.5747 10.4804 28.559 10.6404 27.4661C10.8004 26.3732 11.8162 25.6169 12.9091 25.777Z" fill="#E6A40B"/>
<path d="M14.6477 13.9036C15.7406 14.0636 16.4969 15.0793 16.3368 16.1723C16.1768 17.2652 15.1611 18.0214 14.0682 17.8614C12.9752 17.7013 12.219 16.6856 12.379 15.5927C12.5391 14.4998 13.5548 13.7435 14.6477 13.9036Z" fill="#E6A40B"/>
<path d="M16.3863 2.0302C17.4792 2.19024 18.2355 3.20596 18.0754 4.29887C17.9154 5.39178 16.8997 6.14803 15.8068 5.988C14.7139 5.82796 13.9576 4.81224 14.1176 3.71933C14.2777 2.62641 15.2934 1.87017 16.3863 2.0302Z" fill="#E6A40B"/>
<path d="M33.1786 53.001C34.2715 53.161 35.0277 54.1767 34.8677 55.2696C34.7077 56.3626 33.692 57.1188 32.599 56.9588C31.5061 56.7987 30.7499 55.783 30.9099 54.6901C31.07 53.5972 32.0857 52.8409 33.1786 53.001Z" fill="#E6A40B"/>
<path d="M34.9172 41.1276C36.0101 41.2876 36.7664 42.3033 36.6063 43.3963C36.4463 44.4892 35.4306 45.2454 34.3377 45.0854C33.2448 44.9254 32.4885 43.9096 32.6485 42.8167C32.8086 41.7238 33.8243 40.9676 34.9172 41.1276Z" fill="#E6A40B"/>
<path d="M36.6558 29.2542C37.7487 29.4142 38.505 30.43 38.345 31.5229C38.1849 32.6158 37.1692 33.372 36.0763 33.212C34.9834 33.052 34.2271 32.0363 34.3872 30.9433C34.5472 29.8504 35.5629 29.0942 36.6558 29.2542Z" fill="#E6A40B"/>
<path d="M38.3945 17.3808C39.4874 17.5409 40.2436 18.5566 40.0836 19.6495C39.9235 20.7424 38.9078 21.4987 37.8149 21.3386C36.722 21.1786 35.9658 20.1629 36.1258 19.07C36.2858 17.977 37.3015 17.2208 38.3945 17.3808Z" fill="#E6A40B"/>
<path d="M40.1331 5.50745C41.226 5.66749 41.9822 6.68321 41.8222 7.77612C41.6622 8.86903 40.6465 9.62528 39.5535 9.46524C38.4606 9.30521 37.7044 8.28949 37.8644 7.19658C38.0244 6.10366 39.0402 5.34742 40.1331 5.50745Z" fill="#E6A40B"/>
<path d="M45.052 54.7396C46.1449 54.8996 46.9011 55.9154 46.7411 57.0083C46.5811 58.1012 45.5653 58.8574 44.4724 58.6974C43.3795 58.5374 42.6233 57.5216 42.7833 56.4287C42.9433 55.3358 43.959 54.5796 45.052 54.7396Z" fill="#E6A40B"/>
<path d="M46.7906 42.8662C47.8835 43.0263 48.6397 44.042 48.4797 45.1349C48.3197 46.2278 47.304 46.984 46.211 46.824C45.1181 46.664 44.3619 45.6483 44.5219 44.5553C44.682 43.4624 45.6977 42.7062 46.7906 42.8662Z" fill="#E6A40B"/>
<path d="M48.5292 30.9928C49.6221 31.1529 50.3784 32.1686 50.2183 33.2615C50.0583 34.3544 49.0426 35.1107 47.9497 34.9506C46.8568 34.7906 46.1005 33.7749 46.2605 32.682C46.4206 31.5891 47.4363 30.8328 48.5292 30.9928Z" fill="#E6A40B"/>
<path d="M50.2678 19.1195C51.3607 19.2795 52.117 20.2952 51.957 21.3881C51.7969 22.481 50.7812 23.2373 49.6883 23.0773C48.5954 22.9172 47.8391 21.9015 47.9992 20.8086C48.1592 19.7157 49.1749 18.9594 50.2678 19.1195Z" fill="#E6A40B"/>
<path d="M52.0065 7.24608C53.0994 7.40611 53.8556 8.42183 53.6956 9.51474C53.5356 10.6077 52.5198 11.3639 51.4269 11.2039C50.334 11.0438 49.5778 10.0281 49.7378 8.9352C49.8978 7.84229 50.9135 7.08604 52.0065 7.24608Z" fill="#E6A40B"/>
</svg>
