<svg width="40" height="35" viewBox="0 0 40 35" fill="none" xmlns="http://www.w3.org/2000/svg">
<path d="M28.5256 34.1246C25.9311 33.4547 23.999 31.9754 22.7294 29.6865C21.4597 27.3419 20.8249 24.5786 20.8249 21.3965C20.8249 16.3723 22.4258 12.0458 25.6275 8.41721C28.8844 4.73276 32.6657 1.99734 36.9714 0.210938L39.6211 4.56529L39.5383 5.40267C37.3854 6.18422 35.481 7.85897 33.8249 10.4269C32.1689 12.9949 31.3408 15.6745 31.3408 18.4657C31.3408 20.2521 31.6997 21.7315 32.4173 22.9038C33.1349 24.0203 34.1285 24.6344 35.3982 24.746L35.1498 26.4208L28.5256 34.1246ZM8.32173 34.1246C5.72725 33.4547 3.79519 31.9754 2.52555 29.6865C1.25591 27.3419 0.621094 24.5786 0.621094 21.3965C0.621094 16.3723 2.22194 12.0458 5.42364 8.41721C8.68054 4.73276 12.4619 1.99734 16.7676 0.210938L19.4173 4.56529L19.3345 5.40267C17.1816 6.18422 15.2771 7.85897 13.6211 10.4269C11.965 12.9949 11.137 15.6745 11.137 18.4657C11.137 20.2521 11.4958 21.7315 12.2135 22.9038C12.9311 24.0203 13.9247 24.6344 15.1943 24.746L14.9459 26.4208L8.32173 34.1246Z" fill="#E6A40B"/>
</svg>
