<svg width="39" height="35" viewBox="0 0 39 35" fill="none" xmlns="http://www.w3.org/2000/svg">
<path d="M10.3699 0.580116C12.9806 1.18456 14.9497 2.61486 16.2772 4.87103C17.6062 7.183 18.3111 9.92949 18.3922 13.1105C18.5201 18.1331 17.0299 22.4985 13.9216 26.2064C10.7596 29.9716 7.0491 32.8012 2.79023 34.6953L0.0305349 30.409L0.0919863 29.5698C2.22427 28.7344 4.08548 27.0123 5.67561 24.4035C7.26575 21.7947 8.02529 19.0952 7.95422 16.3048C7.90874 14.519 7.51238 13.0491 6.76513 11.8952C6.01931 10.7971 5.01037 10.2082 3.73829 10.1285L3.94398 8.44808L10.3699 0.580116ZM30.5673 0.0720594C33.178 0.676502 35.1471 2.10681 36.4746 4.36297C37.8035 6.67495 38.5085 9.42144 38.5895 12.6024C38.7174 17.6251 37.2272 21.9904 34.119 25.6984C30.9569 29.4635 27.2465 32.2932 22.9876 34.1873L20.2279 29.901L20.2893 29.0618C22.4216 28.2263 24.2828 26.5042 25.873 23.8954C27.4631 21.2867 28.2226 18.5871 28.1516 15.7968C28.1061 14.0109 27.7097 12.5411 26.9625 11.3872C26.2167 10.2891 25.2077 9.70017 23.9356 9.62048L24.1413 7.94002L30.5673 0.0720594Z" fill="#E6A40B"/>
</svg>
