<svg width="57" height="52" viewBox="0 0 57 52" fill="none" xmlns="http://www.w3.org/2000/svg">
<path d="M11.8548 49.551C11.9949 48.4899 12.9742 47.7425 14.042 47.8817C15.1098 48.021 15.8618 48.9942 15.7217 50.0554C15.5815 51.1165 14.6023 51.8639 13.5345 51.7247C12.4667 51.5854 11.7147 50.6122 11.8548 49.551Z" fill="#E6A40B"/>
<path d="M0.254279 48.0381C0.394409 46.9769 1.37363 46.2295 2.44143 46.3688C3.50923 46.5081 4.26126 47.4812 4.12113 48.5424C3.981 49.6036 3.00177 50.351 1.93397 50.2117C0.866173 50.0724 0.114149 49.0993 0.254279 48.0381Z" fill="#E6A40B"/>
<path d="M38.1006 29.5195C38.2407 28.4583 39.22 27.711 40.2878 27.8502C41.3556 27.9895 42.1076 28.9626 41.9675 30.0238C41.8273 31.085 40.8481 31.8324 39.7803 31.6931C38.7125 31.5539 37.9605 30.5807 38.1006 29.5195Z" fill="#E6A40B"/>
<path d="M26.5001 28.0066C26.6402 26.9454 27.6194 26.198 28.6872 26.3373C29.755 26.4765 30.5071 27.4497 30.3669 28.5109C30.2268 29.5721 29.2476 30.3194 28.1798 30.1802C27.112 30.0409 26.3599 29.0678 26.5001 28.0066Z" fill="#E6A40B"/>
<path d="M14.8995 26.4936C15.0397 25.4324 16.0189 24.6851 17.0867 24.8243C18.1545 24.9636 18.9065 25.9368 18.7664 26.998C18.6263 28.0591 17.647 28.8065 16.5792 28.6672C15.5114 28.528 14.7594 27.5548 14.8995 26.4936Z" fill="#E6A40B"/>
<path d="M3.29901 24.9807C3.43914 23.9195 4.41836 23.1721 5.48616 23.3114C6.55396 23.4507 7.30599 24.4238 7.16586 25.485C7.02573 26.5462 6.0465 27.2936 4.9787 27.1543C3.91091 27.015 3.15888 26.0419 3.29901 24.9807Z" fill="#E6A40B"/>
<path d="M36.5782 41.0482C36.7184 39.987 37.6976 39.2397 38.7654 39.3789C39.8332 39.5182 40.5852 40.4913 40.4451 41.5525C40.305 42.6137 39.3257 43.3611 38.2579 43.2218C37.1901 43.0826 36.4381 42.1094 36.5782 41.0482Z" fill="#E6A40B"/>
<path d="M24.9777 39.5353C25.1178 38.4741 26.0971 37.7267 27.1649 37.866C28.2327 38.0052 28.9847 38.9784 28.8446 40.0396C28.7044 41.1008 27.7252 41.8481 26.6574 41.7089C25.5896 41.5696 24.8376 40.5965 24.9777 39.5353Z" fill="#E6A40B"/>
<path d="M13.3772 38.0223C13.5173 36.9612 14.4965 36.2138 15.5643 36.353C16.6321 36.4923 17.3842 37.4655 17.244 38.5267C17.1039 39.5878 16.1247 40.3352 15.0569 40.1959C13.9891 40.0567 13.237 39.0835 13.3772 38.0223Z" fill="#E6A40B"/>
<path d="M1.77665 36.5094C1.91678 35.4482 2.89599 34.7008 3.96379 34.8401C5.03159 34.9794 5.78362 35.9525 5.64349 37.0137C5.50336 38.0749 4.52414 38.8223 3.45634 38.683C2.38854 38.5437 1.63652 37.5706 1.77665 36.5094Z" fill="#E6A40B"/>
<path d="M51.2235 19.5038C51.3636 18.4426 52.3429 17.6952 53.4107 17.8345C54.4785 17.9737 55.2305 18.9469 55.0904 20.0081C54.9502 21.0693 53.971 21.8166 52.9032 21.6774C51.8354 21.5381 51.0834 20.5649 51.2235 19.5038Z" fill="#E6A40B"/>
<path d="M39.623 17.9908C39.7631 16.9296 40.7423 16.1823 41.8101 16.3215C42.8779 16.4608 43.63 17.4339 43.4898 18.4951C43.3497 19.5563 42.3705 20.3037 41.3027 20.1644C40.2349 20.0252 39.4828 19.052 39.623 17.9908Z" fill="#E6A40B"/>
<path d="M28.0224 16.4779C28.1626 15.4167 29.1418 14.6693 30.2096 14.8086C31.2774 14.9478 32.0294 15.921 31.8893 16.9822C31.7492 18.0434 30.7699 18.7907 29.7021 18.6515C28.6343 18.5122 27.8823 17.5391 28.0224 16.4779Z" fill="#E6A40B"/>
<path d="M16.4219 14.9649C16.562 13.9037 17.5413 13.1564 18.6091 13.2956C19.6769 13.4349 20.4289 14.4081 20.2888 15.4692C20.1486 16.5304 19.1694 17.2778 18.1016 17.1385C17.0338 16.9993 16.2818 16.0261 16.4219 14.9649Z" fill="#E6A40B"/>
<path d="M4.82138 13.452C4.96151 12.3908 5.94073 11.6434 7.00853 11.7827C8.07633 11.922 8.82835 12.8951 8.68822 13.9563C8.54809 15.0175 7.56887 15.7649 6.50107 15.6256C5.43327 15.4863 4.68125 14.5132 4.82138 13.452Z" fill="#E6A40B"/>
<path d="M52.7459 7.97505C52.886 6.91386 53.8652 6.16649 54.933 6.30575C56.0008 6.44502 56.7529 7.41817 56.6127 8.47936C56.4726 9.54055 55.4934 10.2879 54.4256 10.1487C53.3578 10.0094 52.6057 9.03623 52.7459 7.97505Z" fill="#E6A40B"/>
<path d="M41.1453 6.46211C41.2855 5.40092 42.2647 4.65355 43.3325 4.79281C44.4003 4.93208 45.1523 5.90523 45.0122 6.96642C44.8721 8.02761 43.8928 8.77498 42.825 8.63571C41.7572 8.49645 41.0052 7.5233 41.1453 6.46211Z" fill="#E6A40B"/>
<path d="M29.5448 4.94917C29.6849 3.88798 30.6642 3.14061 31.732 3.27988C32.7998 3.41914 33.5518 4.39229 33.4117 5.45348C33.2715 6.51467 32.2923 7.26204 31.2245 7.12277C30.1567 6.98351 29.4047 6.01036 29.5448 4.94917Z" fill="#E6A40B"/>
<path d="M17.9443 3.43623C18.0844 2.37504 19.0636 1.62767 20.1314 1.76694C21.1992 1.9062 21.9513 2.87935 21.8111 3.94054C21.671 5.00173 20.6918 5.7491 19.624 5.60983C18.5562 5.47057 17.8041 4.49742 17.9443 3.43623Z" fill="#E6A40B"/>
<path d="M6.34374 1.92329C6.48387 0.862102 7.46309 0.114735 8.53089 0.253997C9.59869 0.393259 10.3507 1.36642 10.2106 2.4276C10.0705 3.48879 9.09124 4.23616 8.02344 4.0969C6.95564 3.95763 6.20361 2.98448 6.34374 1.92329Z" fill="#E6A40B"/>
</svg>
