<svg width="54" height="61" viewBox="0 0 54 61" fill="none" xmlns="http://www.w3.org/2000/svg">
<path d="M2.48369 12.0407C3.56792 12.2517 4.27579 13.3017 4.06477 14.3859C3.85376 15.4701 2.80375 16.178 1.71953 15.967C0.635302 15.756 -0.0725731 14.706 0.138444 13.6218C0.349461 12.5375 1.39946 11.8297 2.48369 12.0407Z" fill="#454444"/>
<path d="M4.77618 0.261683C5.8604 0.472701 6.56828 1.5227 6.35726 2.60693C6.14624 3.69115 5.09624 4.39903 4.01201 4.18801C2.92779 3.97699 2.21991 2.92699 2.43093 1.84277C2.64195 0.758542 3.69195 0.0506659 4.77618 0.261683Z" fill="#454444"/>
<path d="M21.4567 40.1836C22.5409 40.3946 23.2488 41.4446 23.0378 42.5289C22.8268 43.6131 21.7768 44.321 20.6925 44.1099C19.6083 43.8989 18.9004 42.8489 19.1114 41.7647C19.3225 40.6805 20.3725 39.9726 21.4567 40.1836Z" fill="#454444"/>
<path d="M23.7492 28.4046C24.8334 28.6156 25.5413 29.6656 25.3303 30.7499C25.1192 31.8341 24.0692 32.542 22.985 32.331C21.9008 32.1199 21.1929 31.0699 21.4039 29.9857C21.6149 28.9015 22.665 28.1936 23.7492 28.4046Z" fill="#454444"/>
<path d="M26.0417 16.6256C27.1259 16.8367 27.8338 17.8867 27.6227 18.9709C27.4117 20.0551 26.3617 20.763 25.2775 20.552C24.1933 20.341 23.4854 19.2909 23.6964 18.2067C23.9074 17.1225 24.9574 16.4146 26.0417 16.6256Z" fill="#454444"/>
<path d="M28.3341 4.84665C29.4184 5.05767 30.1262 6.10768 29.9152 7.1919C29.7042 8.27612 28.6542 8.984 27.57 8.77298C26.4858 8.56197 25.7779 7.51196 25.9889 6.42774C26.1999 5.34351 27.2499 4.63564 28.3341 4.84665Z" fill="#454444"/>
<path d="M9.6777 37.8911C10.7619 38.1021 11.4698 39.1521 11.2588 40.2364C11.0478 41.3206 9.99777 42.0285 8.91354 41.8175C7.82932 41.6064 7.12144 40.5564 7.33246 39.4722C7.54348 38.388 8.59348 37.6801 9.6777 37.8911Z" fill="#454444"/>
<path d="M11.9702 26.1121C13.0544 26.3232 13.7623 27.3732 13.5513 28.4574C13.3403 29.5416 12.2903 30.2495 11.206 30.0385C10.1218 29.8275 9.41393 28.7774 9.62494 27.6932C9.83596 26.609 10.886 25.9011 11.9702 26.1121Z" fill="#454444"/>
<path d="M14.2627 14.3332C15.3469 14.5442 16.0548 15.5942 15.8438 16.6784C15.6327 17.7626 14.5827 18.4705 13.4985 18.2595C12.4143 18.0485 11.7064 16.9985 11.9174 15.9142C12.1284 14.83 13.1784 14.1221 14.2627 14.3332Z" fill="#454444"/>
<path d="M16.5552 2.55417C17.6394 2.76519 18.3473 3.81519 18.1362 4.89941C17.9252 5.98364 16.8752 6.69152 15.791 6.4805C14.7068 6.26948 13.9989 5.21948 14.2099 4.13525C14.4209 3.05103 15.4709 2.34315 16.5552 2.55417Z" fill="#454444"/>
<path d="M30.9432 54.2551C32.0274 54.4661 32.7353 55.5161 32.5243 56.6003C32.3133 57.6846 31.2633 58.3924 30.179 58.1814C29.0948 57.9704 28.3869 56.9204 28.5979 55.8362C28.809 54.7519 29.859 54.0441 30.9432 54.2551Z" fill="#454444"/>
<path d="M33.2357 42.4761C34.3199 42.6871 35.0278 43.7371 34.8168 44.8213C34.6057 45.9056 33.5557 46.6134 32.4715 46.4024C31.3873 46.1914 30.6794 45.1414 30.8904 44.0572C31.1014 42.973 32.1515 42.2651 33.2357 42.4761Z" fill="#454444"/>
<path d="M35.5282 30.6971C36.6124 30.9081 37.3203 31.9581 37.1092 33.0424C36.8982 34.1266 35.8482 34.8345 34.764 34.6234C33.6798 34.4124 32.9719 33.3624 33.1829 32.2782C33.3939 31.194 34.4439 30.4861 35.5282 30.6971Z" fill="#454444"/>
<path d="M37.8206 18.9181C38.9049 19.1291 39.6127 20.1791 39.4017 21.2634C39.1907 22.3476 38.1407 23.0555 37.0565 22.8445C35.9723 22.6334 35.2644 21.5834 35.4754 20.4992C35.6864 19.415 36.7364 18.7071 37.8206 18.9181Z" fill="#454444"/>
<path d="M40.1131 7.13914C41.1974 7.35016 41.9052 8.40016 41.6942 9.48439C41.4832 10.5686 40.4332 11.2765 39.349 11.0655C38.2647 10.8545 37.5569 9.80445 37.7679 8.72022C37.9789 7.636 39.0289 6.92812 40.1131 7.13914Z" fill="#454444"/>
<path d="M42.7222 56.5476C43.8064 56.7586 44.5143 57.8086 44.3033 58.8928C44.0922 59.977 43.0422 60.6849 41.958 60.4739C40.8738 60.2629 40.1659 59.2129 40.3769 58.1287C40.5879 57.0444 41.638 56.3366 42.7222 56.5476Z" fill="#454444"/>
<path d="M45.0147 44.7686C46.0989 44.9796 46.8068 46.0296 46.5957 47.1138C46.3847 48.1981 45.3347 48.9059 44.2505 48.6949C43.1663 48.4839 42.4584 47.4339 42.6694 46.3497C42.8804 45.2654 43.9304 44.5576 45.0147 44.7686Z" fill="#454444"/>
<path d="M47.3071 32.9896C48.3914 33.2006 49.0992 34.2506 48.8882 35.3348C48.6772 36.4191 47.6272 37.1269 46.543 36.9159C45.4588 36.7049 44.7509 35.6549 44.9619 34.5707C45.1729 33.4865 46.2229 32.7786 47.3071 32.9896Z" fill="#454444"/>
<path d="M49.5996 21.2106C50.6839 21.4216 51.3917 22.4716 51.1807 23.5559C50.9697 24.6401 49.9197 25.348 48.8355 25.1369C47.7512 24.9259 47.0434 23.8759 47.2544 22.7917C47.4654 21.7075 48.5154 20.9996 49.5996 21.2106Z" fill="#454444"/>
<path d="M51.8921 9.43163C52.9763 9.64264 53.6842 10.6926 53.4732 11.7769C53.2622 12.8611 52.2122 13.569 51.128 13.358C50.0437 13.1469 49.3359 12.0969 49.5469 11.0127C49.7579 9.92848 50.8079 9.22061 51.8921 9.43163Z" fill="#454444"/>
</svg>
