<svg width="53" height="52" viewBox="0 0 53 52" fill="none" xmlns="http://www.w3.org/2000/svg">
<path d="M11.7949 49.0962C11.833 48.0265 12.7363 47.189 13.8126 47.2256C14.8888 47.2623 15.7303 48.1591 15.6922 49.2289C15.6541 50.2986 14.7507 51.1361 13.6745 51.0994C12.5983 51.0628 11.7568 50.166 11.7949 49.0962Z" fill="#DEDEDE"/>
<path d="M0.102865 48.6984C0.140983 47.6286 1.04433 46.7912 2.12055 46.8278C3.19677 46.8644 4.03832 47.7613 4.0002 48.831C3.96208 49.9007 3.05873 50.7382 1.98251 50.7016C0.906293 50.665 0.0647464 49.7681 0.102865 48.6984Z" fill="#DEDEDE"/>
<path d="M36.0071 26.6492C36.0452 25.5794 36.9486 24.742 38.0248 24.7786C39.101 24.8152 39.9426 25.7121 39.9045 26.7818C39.8663 27.8515 38.963 28.689 37.8868 28.6524C36.8106 28.6158 35.969 27.7189 36.0071 26.6492Z" fill="#DEDEDE"/>
<path d="M24.3151 26.2513C24.3532 25.1816 25.2566 24.3441 26.3328 24.3807C27.409 24.4173 28.2506 25.3142 28.2125 26.3839C28.1743 27.4536 27.271 28.2911 26.1948 28.2545C25.1185 28.2179 24.277 27.321 24.3151 26.2513Z" fill="#DEDEDE"/>
<path d="M12.6231 25.8534C12.6612 24.7837 13.5646 23.9462 14.6408 23.9828C15.717 24.0195 16.5586 24.9163 16.5204 25.986C16.4823 27.0558 15.579 27.8933 14.5028 27.8566C13.4265 27.82 12.585 26.9231 12.6231 25.8534Z" fill="#DEDEDE"/>
<path d="M0.931097 25.4556C0.969215 24.3858 1.87256 23.5483 2.94878 23.585C4.025 23.6216 4.86655 24.5185 4.82843 25.5882C4.79032 26.6579 3.88696 27.4954 2.81074 27.4588C1.73452 27.4221 0.892979 26.5253 0.931097 25.4556Z" fill="#DEDEDE"/>
<path d="M35.593 38.2706C35.6311 37.2009 36.5345 36.3634 37.6107 36.4C38.6869 36.4366 39.5285 37.3335 39.4903 38.4032C39.4522 39.4729 38.5489 40.3104 37.4727 40.2738C36.3964 40.2372 35.5549 39.3403 35.593 38.2706Z" fill="#DEDEDE"/>
<path d="M23.901 37.8727C23.9391 36.803 24.8425 35.9655 25.9187 36.0021C26.9949 36.0387 27.8365 36.9356 27.7983 38.0053C27.7602 39.075 26.8569 39.9125 25.7806 39.8759C24.7044 39.8393 23.8629 38.9424 23.901 37.8727Z" fill="#DEDEDE"/>
<path d="M12.209 37.4748C12.2471 36.4051 13.1505 35.5676 14.2267 35.6042C15.3029 35.6409 16.1444 36.5377 16.1063 37.6075C16.0682 38.6772 15.1649 39.5147 14.0886 39.478C13.0124 39.4414 12.1709 38.5446 12.209 37.4748Z" fill="#DEDEDE"/>
<path d="M0.516981 37.077C0.555099 36.0072 1.45845 35.1697 2.53467 35.2064C3.61089 35.243 4.45244 36.1399 4.41432 37.2096C4.3762 38.2793 3.47285 39.1168 2.39663 39.0802C1.32041 39.0435 0.478862 38.1467 0.516981 37.077Z" fill="#DEDEDE"/>
<path d="M48.1132 15.4256C48.1514 14.3559 49.0547 13.5184 50.1309 13.555C51.2072 13.5917 52.0487 14.4885 52.0106 15.5583C51.9725 16.628 51.0691 17.4655 49.9929 17.4288C48.9167 17.3922 48.0751 16.4953 48.1132 15.4256Z" fill="#DEDEDE"/>
<path d="M36.4212 15.0278C36.4594 13.958 37.3627 13.1205 38.4389 13.1572C39.5151 13.1938 40.3567 14.0907 40.3186 15.1604C40.2805 16.2301 39.3771 17.0676 38.3009 17.031C37.2247 16.9943 36.3831 16.0975 36.4212 15.0278Z" fill="#DEDEDE"/>
<path d="M24.7292 14.6299C24.7673 13.5602 25.6707 12.7227 26.7469 12.7593C27.8231 12.7959 28.6647 13.6928 28.6266 14.7625C28.5885 15.8322 27.6851 16.6697 26.6089 16.6331C25.5327 16.5965 24.6911 15.6996 24.7292 14.6299Z" fill="#DEDEDE"/>
<path d="M13.0372 14.232C13.0753 13.1623 13.9787 12.3248 15.0549 12.3614C16.1311 12.398 16.9727 13.2949 16.9346 14.3646C16.8964 15.4344 15.9931 16.2718 14.9169 16.2352C13.8406 16.1986 12.9991 15.3017 13.0372 14.232Z" fill="#DEDEDE"/>
<path d="M1.34521 13.8341C1.38333 12.7644 2.28668 11.9269 3.3629 11.9636C4.43912 12.0002 5.28067 12.897 5.24255 13.9668C5.20443 15.0365 4.30108 15.874 3.22486 15.8374C2.14864 15.8007 1.30709 14.9039 1.34521 13.8341Z" fill="#DEDEDE"/>
<path d="M48.5274 3.80422C48.5655 2.7345 49.4688 1.89701 50.5451 1.93363C51.6213 1.97025 52.4628 2.86712 52.4247 3.93684C52.3866 5.00656 51.4832 5.84405 50.407 5.80743C49.3308 5.77081 48.4892 4.87394 48.5274 3.80422Z" fill="#DEDEDE"/>
<path d="M36.8354 3.40635C36.8735 2.33663 37.7768 1.49914 38.853 1.53576C39.9293 1.57238 40.7708 2.46925 40.7327 3.53897C40.6946 4.60869 39.7912 5.44618 38.715 5.40956C37.6388 5.37294 36.7972 4.47607 36.8354 3.40635Z" fill="#DEDEDE"/>
<path d="M25.1433 3.00848C25.1815 1.93876 26.0848 1.10127 27.161 1.13789C28.2373 1.17451 29.0788 2.07138 29.0407 3.1411C29.0026 4.21082 28.0992 5.04831 27.023 5.01169C25.9468 4.97507 25.1052 4.0782 25.1433 3.00848Z" fill="#DEDEDE"/>
<path d="M13.4513 2.61061C13.4895 1.54089 14.3928 0.703395 15.469 0.740018C16.5452 0.776641 17.3868 1.67351 17.3487 2.74323C17.3106 3.81295 16.4072 4.65044 15.331 4.61382C14.2548 4.5772 13.4132 3.68033 13.4513 2.61061Z" fill="#DEDEDE"/>
<path d="M1.75933 2.21274C1.79745 1.14301 2.7008 0.305524 3.77702 0.342147C4.85323 0.37877 5.69478 1.27564 5.65667 2.34536C5.61855 3.41508 4.7152 4.25257 3.63898 4.21595C2.56276 4.17932 1.72121 3.28246 1.75933 2.21274Z" fill="#DEDEDE"/>
</svg>
