<svg width="54" height="54" viewBox="0 0 54 54" fill="none" xmlns="http://www.w3.org/2000/svg">
<path d="M51.087 41.9849C49.9827 41.9589 49.1086 41.0426 49.1346 39.9384C49.1605 38.8341 50.0768 37.96 51.181 37.986C52.2853 38.0119 53.1594 38.9282 53.1334 40.0325C53.1075 41.1367 52.1912 42.0108 51.087 41.9849Z" fill="#E6A40B"/>
<path d="M50.8047 53.9815C49.7004 53.9555 48.8263 53.0393 48.8523 51.935C48.8783 50.8308 49.7945 49.9567 50.8988 49.9826C52.003 50.0086 52.8771 50.9249 52.8512 52.0291C52.8252 53.1334 51.9089 54.0075 50.8047 53.9815Z" fill="#E6A40B"/>
<path d="M27.6582 17.4269C26.5539 17.4009 25.6798 16.4847 25.7058 15.3804C25.7317 14.2762 26.648 13.4021 27.7523 13.428C28.8565 13.454 29.7306 14.3703 29.7047 15.4745C29.6787 16.5788 28.7624 17.4529 27.6582 17.4269Z" fill="#E6A40B"/>
<path d="M27.3759 29.4236C26.2716 29.3976 25.3975 28.4814 25.4235 27.3771C25.4495 26.2728 26.3657 25.3987 27.47 25.4247C28.5742 25.4507 29.4484 26.3669 29.4224 27.4712C29.3964 28.5755 28.4801 29.4496 27.3759 29.4236Z" fill="#E6A40B"/>
<path d="M27.0936 41.4203C25.9893 41.3943 25.1152 40.4781 25.1412 39.3738C25.1672 38.2695 26.0834 37.3954 27.1877 37.4214C28.292 37.4474 29.1661 38.3636 29.1401 39.4679C29.1141 40.5721 28.1979 41.4463 27.0936 41.4203Z" fill="#E6A40B"/>
<path d="M26.8113 53.417C25.707 53.391 24.8329 52.4747 24.8589 51.3705C24.8849 50.2662 25.8011 49.3921 26.9054 49.4181C28.0097 49.4441 28.8838 50.3603 28.8578 51.4646C28.8318 52.5688 27.9156 53.4429 26.8113 53.417Z" fill="#E6A40B"/>
<path d="M39.6548 17.7092C38.5506 17.6832 37.6765 16.767 37.7024 15.6627C37.7284 14.5585 38.6447 13.6843 39.7489 13.7103C40.8532 13.7363 41.7273 14.6525 41.7013 15.7568C41.6754 16.8611 40.7591 17.7352 39.6548 17.7092Z" fill="#E6A40B"/>
<path d="M39.3726 29.7059C38.2683 29.6799 37.3942 28.7637 37.4202 27.6594C37.4461 26.5551 38.3624 25.681 39.4667 25.707C40.5709 25.733 41.445 26.6492 41.4191 27.7535C41.3931 28.8578 40.4768 29.7319 39.3726 29.7059Z" fill="#E6A40B"/>
<path d="M39.0903 41.7026C37.986 41.6766 37.1119 40.7603 37.1379 39.6561C37.1639 38.5518 38.0801 37.6777 39.1844 37.7037C40.2886 37.7297 41.1628 38.6459 41.1368 39.7502C41.1108 40.8544 40.1945 41.7286 39.0903 41.7026Z" fill="#E6A40B"/>
<path d="M38.808 53.6992C37.7037 53.6733 36.8296 52.757 36.8556 51.6528C36.8816 50.5485 37.7978 49.6744 38.9021 49.7004C40.0063 49.7263 40.8805 50.6426 40.8545 51.7468C40.8285 52.8511 39.9123 53.7252 38.808 53.6992Z" fill="#E6A40B"/>
<path d="M15.9438 5.14796C14.8395 5.12198 13.9654 4.20573 13.9914 3.10147C14.0173 1.99721 14.9336 1.12309 16.0379 1.14907C17.1421 1.17505 18.0162 2.0913 17.9903 3.19557C17.9643 4.29983 17.048 5.17395 15.9438 5.14796Z" fill="#E6A40B"/>
<path d="M15.6615 17.1446C14.5572 17.1187 13.6831 16.2024 13.7091 15.0981C13.7351 13.9939 14.6513 13.1198 15.7556 13.1458C16.8598 13.1717 17.734 14.088 17.708 15.1922C17.682 16.2965 16.7657 17.1706 15.6615 17.1446Z" fill="#E6A40B"/>
<path d="M15.3792 29.1413C14.2749 29.1153 13.4008 28.1991 13.4268 27.0948C13.4528 25.9906 14.369 25.1164 15.4733 25.1424C16.5776 25.1684 17.4517 26.0847 17.4257 27.1889C17.3997 28.2932 16.4835 29.1673 15.3792 29.1413Z" fill="#E6A40B"/>
<path d="M15.0969 41.138C13.9927 41.112 13.1185 40.1958 13.1445 39.0915C13.1705 37.9872 14.0867 37.1131 15.191 37.1391C16.2953 37.1651 17.1694 38.0813 17.1434 39.1856C17.1174 40.2899 16.2012 41.164 15.0969 41.138Z" fill="#E6A40B"/>
<path d="M14.8146 53.1347C13.7104 53.1087 12.8362 52.1924 12.8622 51.0882C12.8882 49.9839 13.8045 49.1098 14.9087 49.1358C16.013 49.1618 16.8871 50.078 16.8611 51.1823C16.8351 52.2865 15.9189 53.1607 14.8146 53.1347Z" fill="#E6A40B"/>
<path d="M3.94709 4.86568C2.84282 4.8397 1.9687 3.92345 1.99469 2.81919C2.02067 1.71492 2.93692 0.840805 4.04118 0.866788C5.14544 0.892771 6.01956 1.80902 5.99358 2.91328C5.9676 4.01755 5.05135 4.89166 3.94709 4.86568Z" fill="#E6A40B"/>
<path d="M3.6648 16.8624C2.56054 16.8364 1.68642 15.9201 1.7124 14.8159C1.73839 13.7116 2.65463 12.8375 3.7589 12.8635C4.86316 12.8895 5.73728 13.8057 5.7113 14.91C5.68531 16.0142 4.76907 16.8883 3.6648 16.8624Z" fill="#E6A40B"/>
<path d="M3.38252 28.859C2.27826 28.8331 1.40414 27.9168 1.43012 26.8125C1.4561 25.7083 2.37235 24.8342 3.47661 24.8601C4.58088 24.8861 5.455 25.8024 5.42901 26.9066C5.40303 28.0109 4.48678 28.885 3.38252 28.859Z" fill="#E6A40B"/>
<path d="M3.10024 40.8557C1.99597 40.8297 1.12185 39.9135 1.14784 38.8092C1.17382 37.705 2.09007 36.8308 3.19433 36.8568C4.29859 36.8828 5.17271 37.7991 5.14673 38.9033C5.12075 40.0076 4.2045 40.8817 3.10024 40.8557Z" fill="#E6A40B"/>
<path d="M2.81795 52.8524C1.71369 52.8264 0.83957 51.9102 0.865554 50.8059C0.891537 49.7016 1.80778 48.8275 2.91205 48.8535C4.01631 48.8795 4.89043 49.7957 4.86445 50.9C4.83846 52.0043 3.92222 52.8784 2.81795 52.8524Z" fill="#E6A40B"/>
</svg>
