<svg width="51" height="52" viewBox="0 0 51 52" fill="none" xmlns="http://www.w3.org/2000/svg">
<path d="M39.25 2.57464C39.25 3.64493 38.377 4.51257 37.3 4.51257C36.223 4.51257 35.35 3.64493 35.35 2.57464C35.35 1.50436 36.223 0.636719 37.3 0.636719C38.377 0.636719 39.25 1.50436 39.25 2.57464Z" fill="#E6A40B"/>
<path d="M50.95 2.57464C50.95 3.64493 50.077 4.51257 49 4.51257C47.923 4.51257 47.05 3.64493 47.05 2.57464C47.05 1.50436 47.923 0.636719 49 0.636719C50.077 0.636719 50.95 1.50436 50.95 2.57464Z" fill="#E6A40B"/>
<path d="M15.85 25.8298C15.85 26.9 14.977 27.7677 13.9 27.7677C12.823 27.7677 11.95 26.9 11.95 25.8298C11.95 24.7595 12.823 23.8918 13.9 23.8918C14.977 23.8918 15.85 24.7595 15.85 25.8298Z" fill="#E6A40B"/>
<path d="M27.55 25.8298C27.55 26.9 26.677 27.7677 25.6 27.7677C24.523 27.7677 23.65 26.9 23.65 25.8298C23.65 24.7595 24.523 23.8918 25.6 23.8918C26.677 23.8918 27.55 24.7595 27.55 25.8298Z" fill="#E6A40B"/>
<path d="M39.25 25.8298C39.25 26.9 38.377 27.7677 37.3 27.7677C36.223 27.7677 35.35 26.9 35.35 25.8298C35.35 24.7595 36.223 23.8918 37.3 23.8918C38.377 23.8918 39.25 24.7595 39.25 25.8298Z" fill="#E6A40B"/>
<path d="M50.95 25.8298C50.95 26.9 50.077 27.7677 49 27.7677C47.923 27.7677 47.05 26.9 47.05 25.8298C47.05 24.7595 47.923 23.8918 49 23.8918C50.077 23.8918 50.95 24.7595 50.95 25.8298Z" fill="#E6A40B"/>
<path d="M15.85 14.2022C15.85 15.2725 14.977 16.1401 13.9 16.1401C12.823 16.1401 11.95 15.2725 11.95 14.2022C11.95 13.1319 12.823 12.2643 13.9 12.2643C14.977 12.2643 15.85 13.1319 15.85 14.2022Z" fill="#E6A40B"/>
<path d="M27.55 14.2022C27.55 15.2725 26.677 16.1401 25.6 16.1401C24.523 16.1401 23.65 15.2725 23.65 14.2022C23.65 13.1319 24.523 12.2643 25.6 12.2643C26.677 12.2643 27.55 13.1319 27.55 14.2022Z" fill="#E6A40B"/>
<path d="M39.25 14.2022C39.25 15.2725 38.377 16.1401 37.3 16.1401C36.223 16.1401 35.35 15.2725 35.35 14.2022C35.35 13.1319 36.223 12.2643 37.3 12.2643C38.377 12.2643 39.25 13.1319 39.25 14.2022Z" fill="#E6A40B"/>
<path d="M50.95 14.2022C50.95 15.2725 50.077 16.1401 49 16.1401C47.923 16.1401 47.05 15.2725 47.05 14.2022C47.05 13.1319 47.923 12.2643 49 12.2643C50.077 12.2643 50.95 13.1319 50.95 14.2022Z" fill="#E6A40B"/>
<path d="M4.15 37.4573C4.15 38.5276 3.27696 39.3952 2.2 39.3952C1.12304 39.3952 0.25 38.5276 0.25 37.4573C0.25 36.387 1.12304 35.5194 2.2 35.5194C3.27696 35.5194 4.15 36.387 4.15 37.4573Z" fill="#E6A40B"/>
<path d="M15.85 37.4573C15.85 38.5276 14.977 39.3952 13.9 39.3952C12.823 39.3952 11.95 38.5276 11.95 37.4573C11.95 36.387 12.823 35.5194 13.9 35.5194C14.977 35.5194 15.85 36.387 15.85 37.4573Z" fill="#E6A40B"/>
<path d="M27.55 37.4573C27.55 38.5276 26.677 39.3952 25.6 39.3952C24.523 39.3952 23.65 38.5276 23.65 37.4573C23.65 36.387 24.523 35.5194 25.6 35.5194C26.677 35.5194 27.55 36.387 27.55 37.4573Z" fill="#E6A40B"/>
<path d="M39.25 37.4573C39.25 38.5276 38.377 39.3952 37.3 39.3952C36.223 39.3952 35.35 38.5276 35.35 37.4573C35.35 36.387 36.223 35.5194 37.3 35.5194C38.377 35.5194 39.25 36.387 39.25 37.4573Z" fill="#E6A40B"/>
<path d="M50.95 37.4573C50.95 38.5276 50.077 39.3952 49 39.3952C47.923 39.3952 47.05 38.5276 47.05 37.4573C47.05 36.387 47.923 35.5194 49 35.5194C50.077 35.5194 50.95 36.387 50.95 37.4573Z" fill="#E6A40B"/>
<path d="M4.15 49.0849C4.15 50.1551 3.27696 51.0228 2.2 51.0228C1.12304 51.0228 0.25 50.1551 0.25 49.0849C0.25 48.0146 1.12304 47.1469 2.2 47.1469C3.27696 47.1469 4.15 48.0146 4.15 49.0849Z" fill="#E6A40B"/>
<path d="M15.85 49.0849C15.85 50.1551 14.977 51.0228 13.9 51.0228C12.823 51.0228 11.95 50.1551 11.95 49.0849C11.95 48.0146 12.823 47.1469 13.9 47.1469C14.977 47.1469 15.85 48.0146 15.85 49.0849Z" fill="#E6A40B"/>
<path d="M27.55 49.0849C27.55 50.1551 26.677 51.0228 25.6 51.0228C24.523 51.0228 23.65 50.1551 23.65 49.0849C23.65 48.0146 24.523 47.1469 25.6 47.1469C26.677 47.1469 27.55 48.0146 27.55 49.0849Z" fill="#E6A40B"/>
<path d="M39.25 49.0849C39.25 50.1551 38.377 51.0228 37.3 51.0228C36.223 51.0228 35.35 50.1551 35.35 49.0849C35.35 48.0146 36.223 47.1469 37.3 47.1469C38.377 47.1469 39.25 48.0146 39.25 49.0849Z" fill="#E6A40B"/>
<path d="M50.95 49.0849C50.95 50.1551 50.077 51.0228 49 51.0228C47.923 51.0228 47.05 50.1551 47.05 49.0849C47.05 48.0146 47.923 47.1469 49 47.1469C50.077 47.1469 50.95 48.0146 50.95 49.0849Z" fill="#E6A40B"/>
</svg>
