<svg width="53" height="54" viewBox="0 0 53 54" fill="none" xmlns="http://www.w3.org/2000/svg">
<path d="M50.3157 41.3743C49.2116 41.3437 48.3414 40.4237 48.372 39.3196C48.4027 38.2154 49.3227 37.3452 50.4268 37.3759C51.531 37.4066 52.4012 38.3265 52.3705 39.4307C52.3398 40.5348 51.4199 41.405 50.3157 41.3743Z" fill="#DEDEDE"/>
<path d="M49.9825 53.3697C48.8783 53.339 48.0081 52.4191 48.0388 51.3149C48.0695 50.2108 48.9894 49.3406 50.0936 49.3713C51.1977 49.4019 52.0679 50.3219 52.0373 51.426C52.0066 52.5302 51.0866 53.4004 49.9825 53.3697Z" fill="#DEDEDE"/>
<path d="M26.9915 16.7171C25.8873 16.6864 25.0171 15.7665 25.0478 14.6623C25.0785 13.5582 25.9984 12.688 27.1026 12.7187C28.2067 12.7493 29.0769 13.6693 29.0463 14.7734C29.0156 15.8776 28.0956 16.7478 26.9915 16.7171Z" fill="#DEDEDE"/>
<path d="M26.6582 28.7125C25.5541 28.6818 24.6839 27.7619 24.7146 26.6577C24.7452 25.5536 25.6652 24.6834 26.7693 24.714C27.8735 24.7447 28.7437 25.6647 28.713 26.7688C28.6823 27.8729 27.7624 28.7432 26.6582 28.7125Z" fill="#DEDEDE"/>
<path d="M26.325 40.7079C25.2209 40.6772 24.3506 39.7572 24.3813 38.6531C24.412 37.5489 25.3319 36.6787 26.4361 36.7094C27.5402 36.7401 28.4104 37.66 28.3798 38.7642C28.3491 39.8683 27.4291 40.7385 26.325 40.7079Z" fill="#DEDEDE"/>
<path d="M25.9917 52.7032C24.8876 52.6726 24.0174 51.7526 24.0481 50.6485C24.0787 49.5443 24.9987 48.6741 26.1028 48.7048C27.207 48.7354 28.0772 49.6554 28.0465 50.7595C28.0158 51.8637 27.0959 52.7339 25.9917 52.7032Z" fill="#DEDEDE"/>
<path d="M38.9869 17.0504C37.8827 17.0197 37.0125 16.0997 37.0432 14.9956C37.0738 13.8914 37.9938 13.0212 39.0979 13.0519C40.2021 13.0826 41.0723 14.0025 41.0416 15.1067C41.011 16.2108 40.091 17.081 38.9869 17.0504Z" fill="#DEDEDE"/>
<path d="M38.6536 29.0457C37.5495 29.0151 36.6792 28.0951 36.7099 26.991C36.7406 25.8868 37.6605 25.0166 38.7647 25.0473C39.8688 25.0779 40.7391 25.9979 40.7084 27.102C40.6777 28.2062 39.7578 29.0764 38.6536 29.0457Z" fill="#DEDEDE"/>
<path d="M38.3204 41.0411C37.2162 41.0104 36.346 40.0905 36.3767 38.9863C36.4074 37.8822 37.3273 37.012 38.4314 37.0426C39.5356 37.0733 40.4058 37.9933 40.3751 39.0974C40.3445 40.2016 39.4245 41.0718 38.3204 41.0411Z" fill="#DEDEDE"/>
<path d="M37.9871 53.0365C36.883 53.0058 36.0128 52.0858 36.0434 50.9817C36.0741 49.8776 36.9941 49.0073 38.0982 49.038C39.2023 49.0687 40.0726 49.9886 40.0419 51.0928C40.0112 52.1969 39.0913 53.0671 37.9871 53.0365Z" fill="#DEDEDE"/>
<path d="M15.3294 4.3885C14.2252 4.35782 13.355 3.43787 13.3857 2.33373C13.4163 1.22958 14.3363 0.359364 15.4404 0.390038C16.5446 0.420712 17.4148 1.34066 17.3841 2.44481C17.3535 3.54895 16.4335 4.41917 15.3294 4.3885Z" fill="#DEDEDE"/>
<path d="M14.9961 16.3839C13.892 16.3532 13.0217 15.4332 13.0524 14.3291C13.0831 13.225 14.0031 12.3547 15.1072 12.3854C16.2113 12.4161 17.0816 13.336 17.0509 14.4402C17.0202 15.5443 16.1003 16.4145 14.9961 16.3839Z" fill="#DEDEDE"/>
<path d="M14.6629 28.3792C13.5587 28.3486 12.6885 27.4286 12.7192 26.3245C12.7499 25.2203 13.6698 24.3501 14.7739 24.3808C15.8781 24.4115 16.7483 25.3314 16.7176 26.4356C16.687 27.5397 15.767 28.4099 14.6629 28.3792Z" fill="#DEDEDE"/>
<path d="M14.3296 40.3746C13.2255 40.3439 12.3553 39.424 12.3859 38.3198C12.4166 37.2157 13.3366 36.3455 14.4407 36.3762C15.5448 36.4068 16.4151 37.3268 16.3844 38.4309C16.3537 39.5351 15.4338 40.4053 14.3296 40.3746Z" fill="#DEDEDE"/>
<path d="M13.9964 52.37C12.8922 52.3393 12.022 51.4194 12.0527 50.3152C12.0834 49.2111 13.0033 48.3409 14.1075 48.3715C15.2116 48.4022 16.0818 49.3222 16.0511 50.4263C16.0205 51.5304 15.1005 52.4007 13.9964 52.37Z" fill="#DEDEDE"/>
<path d="M3.33398 4.05525C2.22984 4.02458 1.35962 3.10462 1.3903 2.00048C1.42097 0.896338 2.34092 0.0261192 3.44507 0.0567935C4.54921 0.0874678 5.41943 1.00742 5.38875 2.11156C5.35808 3.21571 4.43813 4.08593 3.33398 4.05525Z" fill="#DEDEDE"/>
<path d="M3.00074 16.0506C1.8966 16.0199 1.02638 15.1 1.05705 13.9959C1.08773 12.8917 2.00768 12.0215 3.11182 12.0522C4.21596 12.0828 5.08618 13.0028 5.05551 14.1069C5.02484 15.2111 4.10488 16.0813 3.00074 16.0506Z" fill="#DEDEDE"/>
<path d="M2.6675 28.046C1.56335 28.0153 0.693134 27.0954 0.723808 25.9912C0.754482 24.8871 1.67443 24.0169 2.77858 24.0475C3.88272 24.0782 4.75294 24.9982 4.72227 26.1023C4.69159 27.2064 3.77164 28.0767 2.6675 28.046Z" fill="#DEDEDE"/>
<path d="M2.33425 40.0414C1.23011 40.0107 0.359889 39.0907 0.390563 37.9866C0.421238 36.8825 1.34119 36.0122 2.44533 36.0429C3.54948 36.0736 4.41969 36.9935 4.38902 38.0977C4.35835 39.2018 3.43839 40.072 2.33425 40.0414Z" fill="#DEDEDE"/>
<path d="M2.00101 52.0367C0.896864 52.0061 0.0266445 51.0861 0.0573188 49.982C0.087993 48.8778 1.00795 48.0076 2.11209 48.0383C3.21623 48.069 4.08645 48.9889 4.05578 50.093C4.0251 51.1972 3.10515 52.0674 2.00101 52.0367Z" fill="#DEDEDE"/>
</svg>
