<svg width="28" height="19" viewBox="0 0 28 19" fill="none" xmlns="http://www.w3.org/2000/svg">
<path fill-rule="evenodd" clip-rule="evenodd" d="M13.959 0.618067C14.4586 -0.0427857 15.3993 -0.173535 16.0601 0.326031L27.0608 8.64187C27.4439 8.93149 27.6652 9.38706 27.656 9.86724C27.6467 10.3474 27.4081 10.7942 27.0142 11.0689L16.0252 18.7311C15.3457 19.2049 14.4107 19.0382 13.9369 18.3586C13.4631 17.6791 13.6298 16.7441 14.3094 16.2703L21.3627 11.3522L1.59549 11.4089C0.76707 11.4113 0.0935734 10.7416 0.0911975 9.9132C0.0888216 9.08478 0.758466 8.41128 1.58689 8.4089L21.7014 8.35122L14.251 2.71919C13.5902 2.21962 13.4594 1.27892 13.959 0.618067Z" fill="black"/>
</svg>
